<svg viewBox="0 0 32 32" xmlns="http://www.w3.org/2000/svg">
  <!-- Background circle -->
  <circle cx="16" cy="16" r="15" fill="#0a0f1b" stroke="#1e40af" stroke-width="1"/>
  
  <!-- Boid particles with gradient -->
  <defs>
    <linearGradient id="boidGradient" x1="0%" y1="0%" x2="100%" y2="100%">
      <stop offset="0%" style="stop-color:#3b82f6;stop-opacity:1" />
      <stop offset="100%" style="stop-color:#60a5fa;stop-opacity:1" />
    </linearGradient>
    
    <!-- Glow filter -->
    <filter id="glow">
      <feGaussianBlur stdDeviation="0.5" result="coloredBlur"/>
      <feMerge>
        <feMergeNode in="coloredBlur"/>
        <feMergeNode in="SourceGraphic"/>
      </feMerge>
    </filter>
  </defs>
  
  <!-- Lead boid (larger) -->
  <g transform="rotate(-30 16 16)">
    <path d="M 16 8 L 18 14 L 16 13 L 14 14 Z" 
          fill="url(#boidGradient)" 
          filter="url(#glow)"
          opacity="0.9"/>
  </g>
  
  <!-- Following boids -->
  <g transform="rotate(-25 16 16)">
    <path d="M 12 12 L 13 15 L 12 14.5 L 11 15 Z" 
          fill="#60a5fa" 
          opacity="0.8"/>
  </g>
  
  <g transform="rotate(-35 16 16)">
    <path d="M 20 12 L 21 15 L 20 14.5 L 19 15 Z" 
          fill="#60a5fa" 
          opacity="0.8"/>
  </g>
  
  <!-- Trailing boids (smaller) -->
  <g transform="rotate(-20 16 16)">
    <path d="M 10 16 L 10.5 18 L 10 17.5 L 9.5 18 Z" 
          fill="#93c5fd" 
          opacity="0.6"/>
  </g>
  
  <g transform="rotate(-40 16 16)">
    <path d="M 22 16 L 22.5 18 L 22 17.5 L 21.5 18 Z" 
          fill="#93c5fd" 
          opacity="0.6"/>
  </g>
  
  <!-- Motion trails -->
  <path d="M 16 20 Q 14 18 12 18" 
        stroke="#3b82f6" 
        stroke-width="0.5" 
        fill="none" 
        opacity="0.4"/>
  <path d="M 16 20 Q 18 18 20 18" 
        stroke="#3b82f6" 
        stroke-width="0.5" 
        fill="none" 
        opacity="0.4"/>
</svg>